nColumns=19
nRows=48
DataType=double
version=3
OpenSimVersion=4.1
endheader
time	ground_force_1_vx	ground_force_1_vy	ground_force_1_vz	ground_force_1_px	ground_force_1_py	ground_force_1_pz	ground_force_1_mx	ground_force_1_my	ground_force_1_mz	ground_force_2_vx	ground_force_2_vy	ground_force_2_vz	ground_force_2_px	ground_force_2_py	ground_force_2_pz	ground_force_2_mx	ground_force_2_my	ground_force_2_mz
1.15	0	0	0	-0.000594107	0	-4.72527e-05	0	0	0	-12.3283	50.1894	4.67397	1.1164	0	-0.620375	0	-0.527712	0
1.15833	0	0	0	-0.000594107	0	-4.72527e-05	0	0	0	-27.8176	145.293	5.16537	1.17587	0	-0.623621	0	-0.623041	0
1.16667	0	0	0	-0.000594107	0	-4.72527e-05	0	0	0	-54.0804	353.096	4.24865	1.18712	0	-0.624532	0	-0.110025	0
1.175	0	0	0	-0.000594107	0	-4.72527e-05	0	0	0	-90.4996	682.136	0.280923	1.18185	0	-0.625269	-0	1.07043	-0
1.18333	0	0	0	-0.000594107	0	-4.72527e-05	0	0	0	-135.587	1021.09	-8.29599	1.17039	0	-0.625484	-0	2.7912	-0
1.19167	0	0	0	-0.000594107	0	-4.72527e-05	0	0	0	-183.555	1206.59	-20.2914	1.15666	0	-0.624734	-0	4.73348	-0
1.2	0	0	0	-0.000594107	0	-4.72527e-05	0	0	0	-230.01	1225.06	-29.5939	1.14218	0	-0.623491	-0	6.47367	-0
1.20833	0	0	0	-0.000594107	0	-4.72527e-05	0	0	0	-274.125	1222.35	-28.4797	1.1254	0	-0.622976	-0	7.64155	-0
1.21667	0	0	0	-0.000594107	0	-4.72527e-05	0	0	0	-298.426	1305.77	-15.9124	1.10346	0	-0.623512	-0	8.06531	-0
1.225	0	0	0	-0.000594107	0	-4.72527e-05	0	0	0	-283.714	1461.78	-0.841833	1.07497	0	-0.624465	-0	7.80746	-0
1.23333	0	0	0	-0.000594107	0	-4.72527e-05	0	0	0	-241.343	1623.23	6.49844	1.04274	0	-0.625477	-0	7.07398	-0
1.24167	0	0	0	-0.000594107	0	-4.72527e-05	0	0	0	-190.626	1745.62	5.43392	1.01027	0	-0.626345	-0	6.08179	-0
1.25	0	0	0	-0.000594107	0	-4.72527e-05	0	0	0	-144.51	1823.37	3.26053	0.979932	0	-0.626769	-0	4.98823	-0
1.25833	0	0	0	-0.000594107	0	-4.72527e-05	0	0	0	-107.249	1860.62	4.46056	0.952439	0	-0.626816	-0	3.90454	-0
1.26667	0	0	0	-0.000594107	0	-4.72527e-05	0	0	0	-71.3843	1857.9	6.56709	0.925307	0	-0.627033	-0	2.93543	-0
1.275	0	0	0	-0.000594107	0	-4.72527e-05	0	0	0	-32.153	1820.65	6.25541	0.896275	0	-0.627637	-0	2.18981	-0
1.28333	0	0	0	-0.000594107	0	-4.72527e-05	0	0	0	7.56901	1758.49	3.92215	0.866184	0	-0.628206	-0	1.76043	-0
1.29167	0	0	0	-0.000594107	0	-4.72527e-05	0	0	0	44.3398	1672.99	0.723973	0.836942	0	-0.628239	-0	1.69412	-0
1.3	0	0	0	-0.000594107	0	-4.72527e-05	0	0	0	84.1228	1557.81	-4.68684	0.806306	0	-0.627619	-0	1.96365	-0
1.30833	0	0	0	-0.000594107	0	-4.72527e-05	0	0	0	136.692	1410.74	-13.8116	0.769414	0	-0.626523	-0	2.45002	-0
1.31667	0	0	0	-0.000594107	0	-4.72527e-05	0	0	0	192.6	1239.59	-24.5126	0.727915	0	-0.625285	-0	2.9562	-0
1.325	0	0	0	-0.000594107	0	-4.72527e-05	0	0	0	226.895	1054.72	-31.8274	0.689573	0	-0.624056	-0	3.26605	-0
1.33333	0	0	0	-0.000594107	0	-4.72527e-05	0	0	0	229.813	859.358	-32.5372	0.6583	0	-0.622572	-0	3.22726	-0
1.34167	0	0	0	-0.000594107	0	-4.72527e-05	0	0	0	211.342	657.254	-27.7735	0.631391	0	-0.621046	-0	2.8109	-0
1.35	0	0	0	-0.000594107	0	-4.72527e-05	0	0	0	179.051	460.396	-20.7982	0.604477	0	-0.620328	-0	2.11399	-0
1.35833	0	0	0	-0.000594107	0	-4.72527e-05	0	0	0	133.442	286.171	-13.4603	0.57532	0	-0.619951	-0	1.31225	-0
1.36667	0	0	0	-0.000594107	0	-4.72527e-05	0	0	0	82.0201	153.856	-6.01172	0.550496	0	-0.616962	-0	0.595185	-0
1.375	0	0	0	-0.000594107	0	-4.72527e-05	0	0	0	38.8349	72.8431	0.588125	0.56818	0	-0.608935	-0	0.108479	-0
1.38333	0	0	0	-0.000594107	0	-4.72527e-05	0	0	0	13.067	32.7489	4.29248	0.677746	0	-0.599063	0	-0.086636	0
1.39167	0	0	0	-0.000594107	0	-4.72527e-05	0	0	0	3.4698	13.9695	4.36552	0.758197	0	-0.58246	0	-0.028131	0
1.4	0	0	0	-0.000594107	0	-4.72527e-05	0	0	0	0	0	0	-0.000594107	0	-4.72527e-05	0	0	0
1.40833	0	0	0	-0.000594107	0	-4.72527e-05	0	0	0	0	0	0	-0.000594107	0	-4.72527e-05	0	0	0
1.41667	0	0	0	-0.000594107	0	-4.72527e-05	0	0	0	0	0	0	-0.000594107	0	-4.72527e-05	0	0	0
1.425	0	0	0	-0.000594107	0	-4.72527e-05	0	0	0	0	0	0	-0.000594107	0	-4.72527e-05	0	0	0
1.43333	0	0	0	-0.000594107	0	-4.72527e-05	0	0	0	0	0	0	-0.000594107	0	-4.72527e-05	0	0	0
1.44167	0	0	0	-0.000594107	0	-4.72527e-05	0	0	0	0	0	0	-0.000594107	0	-4.72527e-05	0	0	0
1.45	0	0	0	-0.000594107	0	-4.72527e-05	0	0	0	0	0	0	-0.000594107	0	-4.72527e-05	0	0	0
1.45833	0	0	0	-0.000594107	0	-4.72527e-05	0	0	0	0	0	0	-0.000594107	0	-4.72527e-05	0	0	0
1.46667	-1.35342	11.5609	2.38224	1.07319	0	-0.638733	-0	3.98258	-0	0	0	0	-0.000594107	0	-4.72527e-05	0	0	0
1.475	-2.65879	17.0103	0.302715	1.04735	0	-0.632651	-0	5.86242	-0	0	0	0	-0.000594107	0	-4.72527e-05	0	0	0
1.48333	-5.46799	42.7785	-2.99659	1.11068	0	-0.619507	-0	7.74709	-0	0	0	0	-0.000594107	0	-4.72527e-05	0	0	0
1.49167	-14.1211	127.413	-6.65118	1.16793	0	-0.615543	-0	9.16682	-0	0	0	0	-0.000594107	0	-4.72527e-05	0	0	0
1.5	-33.7331	322.788	-9.45269	1.17939	0	-0.616999	-0	9.6394	-0	0	0	0	-0.000594107	0	-4.72527e-05	0	0	0
1.50833	-68.5734	641.174	-8.18552	1.17219	0	-0.620701	-0	8.83289	-0	0	0	0	-0.000594107	0	-4.72527e-05	0	0	0
1.51667	-116.052	979.029	2.06408	1.16062	0	-0.624533	-0	6.72086	-0	0	0	0	-0.000594107	0	-4.72527e-05	0	0	0
1.525	-167.304	1186.52	22.7409	1.14892	0	-0.626941	-0	3.65793	-0	0	0	0	-0.000594107	0	-4.72527e-05	0	0	0
1.53333	-223.355	1255.14	46.7972	1.13729	0	-0.627336	-0	0.312464	-0	0	0	0	-0.000594107	0	-4.72527e-05	0	0	0
1.54167	-275.644	1299.21	62.4499	1.12125	0	-0.626619	0	-2.54143	0	0	0	0	-0.000594107	0	-4.72527e-05	0	0	0
